<svg xmlns="http://www.w3.org/2000/svg" viewBox="-6 -10 156 156" role="img" aria-label="headphones doodle"><defs><filter id="w" filterUnits="userSpaceOnUse" x="-40" y="-40" width="240" height="240"><feTurbulence type="fractalNoise" baseFrequency="0.035" numOctaves="2" seed="3"/><feDisplacementMap in="SourceGraphic" scale="3.5"/></filter><filter id="sk-wash" filterUnits="userSpaceOnUse" x="-50" y="-50" width="2000" height="2000"><feTurbulence type="fractalNoise" baseFrequency="0.06" numOctaves="3" seed="11" result="n"/><feDisplacementMap in="SourceGraphic" in2="n" scale="8" result="d"/><feGaussianBlur in="d" stdDeviation="1.2"/></filter></defs><g stroke="none" opacity=".6" filter="url(#sk-wash)" transform="translate(4 4)"><path d="M16 80 L38 80 L38 124 L16 124 C 10 124, 8 118, 8 112 L8 92 C 8 86, 10 80, 16 80 Z M102 80 L124 80 C 130 80, 132 86, 132 92 L132 112 C 132 118, 130 124, 124 124 L102 124 Z" fill="#F76C37"/></g><g fill="none" stroke="#2A2724" stroke-width="2.6" stroke-linecap="round" stroke-linejoin="round" filter="url(#w)"><path d="M26 84 C 22 30, 118 30, 114 84"/><path d="M16 80 L38 80 L38 124 L16 124 C 10 124, 8 118, 8 112 L8 92 C 8 86, 10 80, 16 80 Z M102 80 L124 80 C 130 80, 132 86, 132 92 L132 112 C 132 118, 130 124, 124 124 L102 124 Z"/><path d="M58 88 L58 110 M70 78 L70 120 M82 92 L82 106"/></g><g filter="url(#w)"></g></svg>