<svg xmlns="http://www.w3.org/2000/svg" viewBox="50 30 160 160" role="img" aria-label="David Laing"><defs><filter id="wob-bubble" filterUnits="userSpaceOnUse" x="-50" y="-50" width="400" height="500"><feTurbulence type="fractalNoise" baseFrequency="0.04" numOctaves="2" seed="3"/><feDisplacementMap in="SourceGraphic" scale="4.5"/></filter><filter id="wash" filterUnits="userSpaceOnUse" x="-50" y="-50" width="2000" height="2000"><feTurbulence type="fractalNoise" baseFrequency="0.06" numOctaves="3" seed="11" result="n"/><feDisplacementMap in="SourceGraphic" in2="n" scale="8" result="d"/><feGaussianBlur in="d" stdDeviation="1.2"/></filter><filter id="wob-lite" filterUnits="userSpaceOnUse" x="-50" y="-50" width="400" height="500"><feTurbulence type="fractalNoise" baseFrequency="0.03" numOctaves="2" seed="3"/><feDisplacementMap in="SourceGraphic" scale="1.8"/></filter></defs><path d="M56 200 C 56 160, 88 132, 130 132 C 172 132, 204 160, 204 200 Z" fill="#FCF9F3"/><path d="M56 200 C 56 160, 88 132, 130 132 C 172 132, 204 160, 204 200 Z" fill="#4A7D4B" opacity=".6" transform="translate(2 2)" filter="url(#wash)"/><path d="M56 200 C 56 160, 88 132, 130 132 C 172 132, 204 160, 204 200 Z" fill="none" stroke="#2a2724" stroke-width="5" stroke-linejoin="round" filter="url(#wob-bubble)"/>
<path d="M112 138 Q130 152 148 138" fill="none" stroke="#2a2724" stroke-width="4" stroke-linecap="round" stroke-linejoin="round"/>
<g transform="rotate(-5 130 134)">
<path d="M88 92 a42 42 0 1 0 84 0 a42 42 0 1 0 -84 0 Z" fill="#FCF9F3"/><path d="M88 92 a42 42 0 1 0 84 0 a42 42 0 1 0 -84 0 Z" fill="#f2c9a6" opacity=".6" transform="translate(2 2)" filter="url(#wash)"/><path d="M88 92 a42 42 0 1 0 84 0 a42 42 0 1 0 -84 0 Z" fill="none" stroke="#2a2724" stroke-width="5" stroke-linejoin="round" filter="url(#wob-bubble)"/>
<circle cx="118" cy="98" r="4" fill="#2a2724"/>
<circle cx="146" cy="98" r="4" fill="#2a2724"/>
<ellipse cx="108" cy="110" rx="8" ry="5" fill="#f28c7a" opacity=".45"/>
<ellipse cx="156" cy="110" rx="8" ry="5" fill="#f28c7a" opacity=".45"/>
<path d="M89 88 C 86 68, 92 54, 102 48 C 104 40, 116 34, 126 38 C 134 32, 150 32, 158 40 C 168 42, 176 54, 173 68 C 175 76, 174 82, 171 88 C 168 76, 163 68, 156 66 C 146 62, 126 66, 110 66 C 100 70, 92 78, 89 88 Z" fill="#FCF9F3"/><path d="M89 88 C 86 68, 92 54, 102 48 C 104 40, 116 34, 126 38 C 134 32, 150 32, 158 40 C 168 42, 176 54, 173 68 C 175 76, 174 82, 171 88 C 168 76, 163 68, 156 66 C 146 62, 126 66, 110 66 C 100 70, 92 78, 89 88 Z" fill="#6b4a2e" opacity=".6" transform="translate(2 2)" filter="url(#wash)"/><path d="M89 88 C 86 68, 92 54, 102 48 C 104 40, 116 34, 126 38 C 134 32, 150 32, 158 40 C 168 42, 176 54, 173 68 C 175 76, 174 82, 171 88 C 168 76, 163 68, 156 66 C 146 62, 126 66, 110 66 C 100 70, 92 78, 89 88 Z" fill="none" stroke="#2a2724" stroke-width="5" stroke-linejoin="round" filter="url(#wob-bubble)"/>
<path d="M114 52 C 122 46, 132 44, 142 46 M132 58 C 140 54, 150 54, 158 58" fill="none" stroke="#2a2724" stroke-width="3" stroke-linecap="round" stroke-linejoin="round"/>
<path d="M118 114 Q130 121 146 111" fill="none" stroke="#2a2724" stroke-width="4.5" stroke-linecap="round" stroke-linejoin="round"/>
<path d="M106 90 h22 q2 0 2 2 v9 q0 6 -6 6 h-12 q-6 0 -6 -6 v-9 q0 -2 2 -2 Z M136 90 h22 q2 0 2 2 v9 q0 6 -6 6 h-12 q-6 0 -6 -6 v-9 q0 -2 2 -2 Z M130 94 L136 94" fill="none" stroke="#2a2724" stroke-width="4" stroke-linecap="round" stroke-linejoin="round"/>
</g></svg>