<svg xmlns="http://www.w3.org/2000/svg" viewBox="-6 -10 156 156" role="img" aria-label="Popcorn doodle"><defs><filter id="w" filterUnits="userSpaceOnUse" x="-40" y="-40" width="240" height="240"><feTurbulence type="fractalNoise" baseFrequency="0.035" numOctaves="2" seed="3"/><feDisplacementMap in="SourceGraphic" scale="3.5"/></filter><filter id="sk-wash" filterUnits="userSpaceOnUse" x="-50" y="-50" width="2000" height="2000"><feTurbulence type="fractalNoise" baseFrequency="0.06" numOctaves="3" seed="11" result="n"/><feDisplacementMap in="SourceGraphic" in2="n" scale="8" result="d"/><feGaussianBlur in="d" stdDeviation="1.2"/></filter></defs><g stroke="none" opacity=".6" filter="url(#sk-wash)" transform="translate(4 4)"><path d="M30 60 C 18 52, 24 36, 38 40 C 36 26, 54 20, 62 30 C 66 16, 88 16, 90 30 C 102 24, 116 36, 106 46 C 118 50, 116 60, 110 60 Z" fill="#FFEEB8"/></g><g fill="none" stroke="#2A2724" stroke-width="2.6" stroke-linecap="round" stroke-linejoin="round" filter="url(#w)"><path d="M30 60 C 18 52, 24 36, 38 40 C 36 26, 54 20, 62 30 C 66 16, 88 16, 90 30 C 102 24, 116 36, 106 46 C 118 50, 116 60, 110 60 Z"/><path d="M48 44 C 52 38, 60 40, 60 46 M70 32 C 74 26, 82 28, 80 36 M88 46 C 92 40, 100 42, 98 48"/></g><g filter="url(#w)"></g><path d="M28 58 L112 58 L100 134 L40 134 Z" fill="#FCF9F3" filter="url(#w)"/><g stroke="none" opacity=".6" filter="url(#sk-wash)" transform="translate(4 4)"><path d="M28 58 L112 58 L100 134 L40 134 Z" fill="#FCF9F3"/><path d="M28 58 L44 58 L50 134 L40 134 Z M60 58 L76 58 L74 134 L62 134 Z M94 58 L112 58 L100 134 L88 134 Z" fill="#F76C37"/></g><g fill="none" stroke="#2A2724" stroke-width="2.6" stroke-linecap="round" stroke-linejoin="round" filter="url(#w)"><path d="M28 58 L112 58 L100 134 L40 134 Z"/><path d="M28 58 L44 58 L50 134 L40 134 Z M60 58 L76 58 L74 134 L62 134 Z M94 58 L112 58 L100 134 L88 134 Z"/><path d="M24 58 L116 58"/></g><g filter="url(#w)"></g></svg>