<svg xmlns="http://www.w3.org/2000/svg" viewBox="-6 -10 156 156" role="img" aria-label="Ralph loop doodle"><defs><filter id="w" filterUnits="userSpaceOnUse" x="-40" y="-40" width="240" height="240"><feTurbulence type="fractalNoise" baseFrequency="0.035" numOctaves="2" seed="3"/><feDisplacementMap in="SourceGraphic" scale="3.5"/></filter><filter id="sk-wash" filterUnits="userSpaceOnUse" x="-50" y="-50" width="2000" height="2000"><feTurbulence type="fractalNoise" baseFrequency="0.06" numOctaves="3" seed="11" result="n"/><feDisplacementMap in="SourceGraphic" in2="n" scale="8" result="d"/><feGaussianBlur in="d" stdDeviation="1.2"/></filter></defs><g stroke="none" opacity=".6" filter="url(#sk-wash)" transform="translate(4 4)"><path d="M98.2 19.0 A 60 60 0 1 1 45.6 17.2 L50.9 29.1 A 47 47 0 1 0 92.1 30.5 Z" fill="#F76C37"/><path d="M54.5 37.3 L41.9 9.0 L75.5 19.3 Z" fill="#F76C37"/><path d="M54 50 L80 48 L89 57 L90 96 L56 98 Z" fill="#FFEEB8"/></g><g fill="none" stroke="#2A2724" stroke-width="2.6" stroke-linecap="round" stroke-linejoin="round" filter="url(#w)"><path d="M98.2 19.0 A 60 60 0 1 1 45.6 17.2 L50.9 29.1 A 47 47 0 1 0 92.1 30.5 Z"/><path d="M54.5 37.3 L41.9 9.0 L75.5 19.3 Z"/><path d="M54 50 L80 48 L89 57 L90 96 L56 98 Z"/><path d="M80 48 L81 57 L89 57"/><path d="M61 63 L64 67 L69 60 M73 64 L83 63 M61 75 L64 79 L69 72 M73 76 L84 75 M62 88 L67 88 M73 88 L84 87"/></g><g filter="url(#w)"></g></svg>