<svg xmlns="http://www.w3.org/2000/svg" viewBox="0 4 610 360" role="img" aria-label="a group of four people and a dog"><defs><filter id="wob-bubble" filterUnits="userSpaceOnUse" x="-50" y="-50" width="400" height="500"><feTurbulence type="fractalNoise" baseFrequency="0.04" numOctaves="2" seed="3"/><feDisplacementMap in="SourceGraphic" scale="4.5"/></filter><filter id="wash" filterUnits="userSpaceOnUse" x="-50" y="-50" width="2000" height="2000"><feTurbulence type="fractalNoise" baseFrequency="0.06" numOctaves="3" seed="11" result="n"/><feDisplacementMap in="SourceGraphic" in2="n" scale="8" result="d"/><feGaussianBlur in="d" stdDeviation="1.2"/></filter><filter id="wob-lite" filterUnits="userSpaceOnUse" x="-50" y="-50" width="400" height="500"><feTurbulence type="fractalNoise" baseFrequency="0.03" numOctaves="2" seed="3"/><feDisplacementMap in="SourceGraphic" scale="1.8"/></filter></defs><g transform="translate(260 0) scale(-1 1)"><g fill="none" stroke-linecap="round"><path d="M112 256 L102 330" stroke="#2a2724" stroke-width="36" filter="url(#wob-bubble)"/><path d="M112 256 L102 330" stroke="#FCF9F3" stroke-width="26"/><path d="M112 256 L102 330" stroke="#36545c" stroke-width="24" opacity=".6" filter="url(#wash)"/></g>
<g fill="none" stroke-linecap="round"><path d="M148 256 L158 330" stroke="#2a2724" stroke-width="36" filter="url(#wob-bubble)"/><path d="M148 256 L158 330" stroke="#FCF9F3" stroke-width="26"/><path d="M148 256 L158 330" stroke="#36545c" stroke-width="24" opacity=".6" filter="url(#wash)"/></g>
<path d="M80 330 h26 a10 10 0 0 1 0 20 h-26 a10 10 0 0 1 0 -20 Z" fill="#FCF9F3"/><path d="M80 330 h26 a10 10 0 0 1 0 20 h-26 a10 10 0 0 1 0 -20 Z" fill="#2a2724" opacity=".88" transform="translate(2 2)" filter="url(#wash)"/><path d="M80 330 h26 a10 10 0 0 1 0 20 h-26 a10 10 0 0 1 0 -20 Z" fill="none" stroke="#2a2724" stroke-width="5" stroke-linejoin="round" filter="url(#wob-bubble)"/>
<path d="M154 330 h26 a10 10 0 0 1 0 20 h-26 a10 10 0 0 1 0 -20 Z" fill="#FCF9F3"/><path d="M154 330 h26 a10 10 0 0 1 0 20 h-26 a10 10 0 0 1 0 -20 Z" fill="#2a2724" opacity=".88" transform="translate(2 2)" filter="url(#wash)"/><path d="M154 330 h26 a10 10 0 0 1 0 20 h-26 a10 10 0 0 1 0 -20 Z" fill="none" stroke="#2a2724" stroke-width="5" stroke-linejoin="round" filter="url(#wob-bubble)"/>
<g fill="none" stroke-linecap="round"><path d="M98 152 C 80 170, 70 192, 64 214" stroke="#2a2724" stroke-width="32" filter="url(#wob-bubble)"/><path d="M98 152 C 80 170, 70 192, 64 214" stroke="#FCF9F3" stroke-width="22"/><path d="M98 152 C 80 170, 70 192, 64 214" stroke="#039695" stroke-width="20" opacity=".6" filter="url(#wash)"/></g>
<path d="M51 222 a11 11 0 1 0 22 0 a11 11 0 1 0 -22 0 Z" fill="#FCF9F3"/><path d="M51 222 a11 11 0 1 0 22 0 a11 11 0 1 0 -22 0 Z" fill="#e8b48f" opacity=".6" transform="translate(2 2)" filter="url(#wash)"/><path d="M51 222 a11 11 0 1 0 22 0 a11 11 0 1 0 -22 0 Z" fill="none" stroke="#2a2724" stroke-width="5" stroke-linejoin="round" filter="url(#wob-bubble)"/>
<path d="M96 140 C 104 132, 156 132, 164 140 L 176 246 C 177 256, 172 262, 162 262 L 98 262 C 88 262, 83 256, 84 246 Z" fill="#FCF9F3"/><path d="M96 140 C 104 132, 156 132, 164 140 L 176 246 C 177 256, 172 262, 162 262 L 98 262 C 88 262, 83 256, 84 246 Z" fill="#039695" opacity=".6" transform="translate(2 2)" filter="url(#wash)"/><path d="M96 140 C 104 132, 156 132, 164 140 L 176 246 C 177 256, 172 262, 162 262 L 98 262 C 88 262, 83 256, 84 246 Z" fill="none" stroke="#2a2724" stroke-width="5" stroke-linejoin="round" filter="url(#wob-bubble)"/>
<path d="M114 140 Q130 152 146 140" fill="none" stroke="#2a2724" stroke-width="4.5" stroke-linecap="round" stroke-linejoin="round"/>
<g fill="none" stroke-linecap="round"><path d="M162 150 C 186 142, 198 120, 202 98" stroke="#2a2724" stroke-width="32" filter="url(#wob-bubble)"/><path d="M162 150 C 186 142, 198 120, 202 98" stroke="#FCF9F3" stroke-width="22"/><path d="M162 150 C 186 142, 198 120, 202 98" stroke="#039695" stroke-width="20" opacity=".6" filter="url(#wash)"/></g>
<path d="M191 88 a12 12 0 1 0 24 0 a12 12 0 1 0 -24 0 Z" fill="#FCF9F3"/><path d="M191 88 a12 12 0 1 0 24 0 a12 12 0 1 0 -24 0 Z" fill="#e8b48f" opacity=".6" transform="translate(2 2)" filter="url(#wash)"/><path d="M191 88 a12 12 0 1 0 24 0 a12 12 0 1 0 -24 0 Z" fill="none" stroke="#2a2724" stroke-width="5" stroke-linejoin="round" filter="url(#wob-bubble)"/>
<path d="M218 70 C 226 78, 226 92, 220 100 M226 62 C 238 74, 238 98, 228 108" fill="none" stroke="#2a2724" stroke-width="4.5" stroke-linecap="round" stroke-linejoin="round"/>
<g transform="rotate(0 130 134)">
<path d="M86 100 C 78 50, 110 36, 130 38 C 150 36, 182 50, 174 100 L 180 158 C 168 164, 156 158, 154 146 L 106 146 C 104 158, 92 164, 80 158 Z" fill="#FCF9F3"/><path d="M86 100 C 78 50, 110 36, 130 38 C 150 36, 182 50, 174 100 L 180 158 C 168 164, 156 158, 154 146 L 106 146 C 104 158, 92 164, 80 158 Z" fill="#3b2a20" opacity=".88" transform="translate(2 2)" filter="url(#wash)"/><path d="M86 100 C 78 50, 110 36, 130 38 C 150 36, 182 50, 174 100 L 180 158 C 168 164, 156 158, 154 146 L 106 146 C 104 158, 92 164, 80 158 Z" fill="none" stroke="#2a2724" stroke-width="5" stroke-linejoin="round" filter="url(#wob-bubble)"/>
<path d="M88 92 a42 42 0 1 0 84 0 a42 42 0 1 0 -84 0 Z" fill="#FCF9F3"/><path d="M88 92 a42 42 0 1 0 84 0 a42 42 0 1 0 -84 0 Z" fill="#e8b48f" opacity=".6" transform="translate(2 2)" filter="url(#wash)"/><path d="M88 92 a42 42 0 1 0 84 0 a42 42 0 1 0 -84 0 Z" fill="none" stroke="#2a2724" stroke-width="5" stroke-linejoin="round" filter="url(#wob-bubble)"/>
<path d="M88 92 C 90 58, 112 48, 134 50 C 156 50, 172 64, 172 92 C 160 72, 140 66, 124 70 C 108 72, 96 80, 88 92 Z" fill="#FCF9F3"/><path d="M88 92 C 90 58, 112 48, 134 50 C 156 50, 172 64, 172 92 C 160 72, 140 66, 124 70 C 108 72, 96 80, 88 92 Z" fill="#3b2a20" opacity=".88" transform="translate(2 2)" filter="url(#wash)"/><path d="M88 92 C 90 58, 112 48, 134 50 C 156 50, 172 64, 172 92 C 160 72, 140 66, 124 70 C 108 72, 96 80, 88 92 Z" fill="none" stroke="#2a2724" stroke-width="5" stroke-linejoin="round" filter="url(#wob-bubble)"/>
<circle cx="116" cy="98" r="4.5" fill="#2a2724"/>
<circle cx="144" cy="98" r="4.5" fill="#2a2724"/>
<path d="M119 113 Q130 122 141 113" fill="none" stroke="#2a2724" stroke-width="4.5" stroke-linecap="round" stroke-linejoin="round"/>
<ellipse cx="106" cy="110" rx="8" ry="5" fill="#f28c7a" opacity=".45"/>
<ellipse cx="154" cy="110" rx="8" ry="5" fill="#f28c7a" opacity=".45"/>
</g></g><g transform="translate(125 0)"><g fill="none" stroke-linecap="round"><path d="M112 256 L110 330" stroke="#2a2724" stroke-width="36" filter="url(#wob-bubble)"/><path d="M112 256 L110 330" stroke="#FCF9F3" stroke-width="26"/><path d="M112 256 L110 330" stroke="#36545c" stroke-width="24" opacity=".6" filter="url(#wash)"/></g>
<g fill="none" stroke-linecap="round"><path d="M148 256 L150 330" stroke="#2a2724" stroke-width="36" filter="url(#wob-bubble)"/><path d="M148 256 L150 330" stroke="#FCF9F3" stroke-width="26"/><path d="M148 256 L150 330" stroke="#36545c" stroke-width="24" opacity=".6" filter="url(#wash)"/></g>
<path d="M88 330 h26 a10 10 0 0 1 0 20 h-26 a10 10 0 0 1 0 -20 Z" fill="#FCF9F3"/><path d="M88 330 h26 a10 10 0 0 1 0 20 h-26 a10 10 0 0 1 0 -20 Z" fill="#2a2724" opacity=".88" transform="translate(2 2)" filter="url(#wash)"/><path d="M88 330 h26 a10 10 0 0 1 0 20 h-26 a10 10 0 0 1 0 -20 Z" fill="none" stroke="#2a2724" stroke-width="5" stroke-linejoin="round" filter="url(#wob-bubble)"/>
<path d="M146 330 h26 a10 10 0 0 1 0 20 h-26 a10 10 0 0 1 0 -20 Z" fill="#FCF9F3"/><path d="M146 330 h26 a10 10 0 0 1 0 20 h-26 a10 10 0 0 1 0 -20 Z" fill="#2a2724" opacity=".88" transform="translate(2 2)" filter="url(#wash)"/><path d="M146 330 h26 a10 10 0 0 1 0 20 h-26 a10 10 0 0 1 0 -20 Z" fill="none" stroke="#2a2724" stroke-width="5" stroke-linejoin="round" filter="url(#wob-bubble)"/>
<g fill="none" stroke-linecap="round"><path d="M98 152 C 84 178, 80 204, 82 228" stroke="#2a2724" stroke-width="32" filter="url(#wob-bubble)"/><path d="M98 152 C 84 178, 80 204, 82 228" stroke="#FCF9F3" stroke-width="22"/><path d="M98 152 C 84 178, 80 204, 82 228" stroke="#4a7d4b" stroke-width="20" opacity=".6" filter="url(#wash)"/></g>
<path d="M71 236 a11 11 0 1 0 22 0 a11 11 0 1 0 -22 0 Z" fill="#FCF9F3"/><path d="M71 236 a11 11 0 1 0 22 0 a11 11 0 1 0 -22 0 Z" fill="#f3c9a8" opacity=".6" transform="translate(2 2)" filter="url(#wash)"/><path d="M71 236 a11 11 0 1 0 22 0 a11 11 0 1 0 -22 0 Z" fill="none" stroke="#2a2724" stroke-width="5" stroke-linejoin="round" filter="url(#wob-bubble)"/>
<path d="M96 140 C 104 132, 156 132, 164 140 L 176 246 C 177 256, 172 262, 162 262 L 98 262 C 88 262, 83 256, 84 246 Z" fill="#FCF9F3"/><path d="M96 140 C 104 132, 156 132, 164 140 L 176 246 C 177 256, 172 262, 162 262 L 98 262 C 88 262, 83 256, 84 246 Z" fill="#4a7d4b" opacity=".6" transform="translate(2 2)" filter="url(#wash)"/><path d="M96 140 C 104 132, 156 132, 164 140 L 176 246 C 177 256, 172 262, 162 262 L 98 262 C 88 262, 83 256, 84 246 Z" fill="none" stroke="#2a2724" stroke-width="5" stroke-linejoin="round" filter="url(#wob-bubble)"/>
<path d="M114 140 Q130 152 146 140" fill="none" stroke="#2a2724" stroke-width="4.5" stroke-linecap="round" stroke-linejoin="round"/>
<g fill="none" stroke-linecap="round"><path d="M162 152 C 184 172, 188 196, 170 210" stroke="#2a2724" stroke-width="32" filter="url(#wob-bubble)"/><path d="M162 152 C 184 172, 188 196, 170 210" stroke="#FCF9F3" stroke-width="22"/><path d="M162 152 C 184 172, 188 196, 170 210" stroke="#4a7d4b" stroke-width="20" opacity=".6" filter="url(#wash)"/></g>
<path d="M114 186 L160 176 L204 184 L202 234 L160 228 L116 238 Z" fill="#FCF9F3"/><path d="M114 186 L160 176 L204 184 L202 234 L160 228 L116 238 Z" fill="#1f78a8" opacity=".6" transform="translate(2 2)" filter="url(#wash)"/><path d="M114 186 L160 176 L204 184 L202 234 L160 228 L116 238 Z" fill="none" stroke="#2a2724" stroke-width="5" stroke-linejoin="round" filter="url(#wob-bubble)"/>
<path d="M120 188 L160 180 L198 188 L196 228 L160 222 L122 232 Z" fill="#FCF9F3"/><path d="M120 188 L160 180 L198 188 L196 228 L160 222 L122 232 Z" fill="#ffffff" opacity=".6" transform="translate(2 2)" filter="url(#wash)"/><path d="M120 188 L160 180 L198 188 L196 228 L160 222 L122 232 Z" fill="none" stroke="#2a2724" stroke-width="5" stroke-linejoin="round" filter="url(#wob-bubble)"/>
<path d="M160 180 L160 222" fill="none" stroke="#2a2724" stroke-width="4" stroke-linecap="round" stroke-linejoin="round"/>
<path d="M130 196 L150 192 M130 206 L150 202 M170 194 L188 197 M170 204 L186 207" fill="none" stroke="#2a2724" stroke-width="3.5" stroke-linecap="round" stroke-linejoin="round"/>
<path d="M150 226 a10 10 0 1 0 20 0 a10 10 0 1 0 -20 0 Z" fill="#FCF9F3"/><path d="M150 226 a10 10 0 1 0 20 0 a10 10 0 1 0 -20 0 Z" fill="#f3c9a8" opacity=".6" transform="translate(2 2)" filter="url(#wash)"/><path d="M150 226 a10 10 0 1 0 20 0 a10 10 0 1 0 -20 0 Z" fill="none" stroke="#2a2724" stroke-width="5" stroke-linejoin="round" filter="url(#wob-bubble)"/>
<g transform="rotate(8 130 134)">
<path d="M88 92 a42 42 0 1 0 84 0 a42 42 0 1 0 -84 0 Z" fill="#FCF9F3"/><path d="M88 92 a42 42 0 1 0 84 0 a42 42 0 1 0 -84 0 Z" fill="#f3c9a8" opacity=".6" transform="translate(2 2)" filter="url(#wash)"/><path d="M88 92 a42 42 0 1 0 84 0 a42 42 0 1 0 -84 0 Z" fill="none" stroke="#2a2724" stroke-width="5" stroke-linejoin="round" filter="url(#wob-bubble)"/>
<path d="M88 96 C 82 52, 110 40, 134 42 C 162 44, 178 62, 172 96 C 164 74, 144 68, 126 72 C 108 74, 96 82, 88 96 Z" fill="#FCF9F3"/><path d="M88 96 C 82 52, 110 40, 134 42 C 162 44, 178 62, 172 96 C 164 74, 144 68, 126 72 C 108 74, 96 82, 88 96 Z" fill="#6b4a2e" opacity=".6" transform="translate(2 2)" filter="url(#wash)"/><path d="M88 96 C 82 52, 110 40, 134 42 C 162 44, 178 62, 172 96 C 164 74, 144 68, 126 72 C 108 74, 96 82, 88 96 Z" fill="none" stroke="#2a2724" stroke-width="5" stroke-linejoin="round" filter="url(#wob-bubble)"/>
<circle cx="120" cy="98" r="4.5" fill="#2a2724"/>
<circle cx="148" cy="98" r="4.5" fill="#2a2724"/>
<path d="M123 113 Q134 122 145 113" fill="none" stroke="#2a2724" stroke-width="4.5" stroke-linecap="round" stroke-linejoin="round"/>
<ellipse cx="110" cy="110" rx="8" ry="5" fill="#f28c7a" opacity=".45"/>
<ellipse cx="158" cy="110" rx="8" ry="5" fill="#f28c7a" opacity=".45"/>
<g fill="none" stroke-linecap="round"><path d="M90 92 C 86 40, 174 40, 170 92" stroke="#2a2724" stroke-width="17" filter="url(#wob-bubble)"/><path d="M90 92 C 86 40, 174 40, 170 92" stroke="#FCF9F3" stroke-width="7"/><path d="M90 92 C 86 40, 174 40, 170 92" stroke="#f76c37" stroke-width="5" opacity=".6" filter="url(#wash)"/></g>
<path d="M78 80 h14 a6 6 0 0 1 6 6 v18 a6 6 0 0 1 -6 6 h-14 a6 6 0 0 1 -6 -6 v-18 a6 6 0 0 1 6 -6 Z" fill="#FCF9F3"/><path d="M78 80 h14 a6 6 0 0 1 6 6 v18 a6 6 0 0 1 -6 6 h-14 a6 6 0 0 1 -6 -6 v-18 a6 6 0 0 1 6 -6 Z" fill="#f76c37" opacity=".6" transform="translate(2 2)" filter="url(#wash)"/><path d="M78 80 h14 a6 6 0 0 1 6 6 v18 a6 6 0 0 1 -6 6 h-14 a6 6 0 0 1 -6 -6 v-18 a6 6 0 0 1 6 -6 Z" fill="none" stroke="#2a2724" stroke-width="5" stroke-linejoin="round" filter="url(#wob-bubble)"/>
<path d="M168 80 h14 a6 6 0 0 1 6 6 v18 a6 6 0 0 1 -6 6 h-14 a6 6 0 0 1 -6 -6 v-18 a6 6 0 0 1 6 -6 Z" fill="#FCF9F3"/><path d="M168 80 h14 a6 6 0 0 1 6 6 v18 a6 6 0 0 1 -6 6 h-14 a6 6 0 0 1 -6 -6 v-18 a6 6 0 0 1 6 -6 Z" fill="#f76c37" opacity=".6" transform="translate(2 2)" filter="url(#wash)"/><path d="M168 80 h14 a6 6 0 0 1 6 6 v18 a6 6 0 0 1 -6 6 h-14 a6 6 0 0 1 -6 -6 v-18 a6 6 0 0 1 6 -6 Z" fill="none" stroke="#2a2724" stroke-width="5" stroke-linejoin="round" filter="url(#wob-bubble)"/>
</g></g><g transform="translate(250 0)"><g fill="none" stroke-linecap="round"><path d="M112 256 L110 330" stroke="#2a2724" stroke-width="36" filter="url(#wob-bubble)"/><path d="M112 256 L110 330" stroke="#FCF9F3" stroke-width="26"/><path d="M112 256 L110 330" stroke="#36545c" stroke-width="24" opacity=".6" filter="url(#wash)"/></g>
<g fill="none" stroke-linecap="round"><path d="M148 256 L150 330" stroke="#2a2724" stroke-width="36" filter="url(#wob-bubble)"/><path d="M148 256 L150 330" stroke="#FCF9F3" stroke-width="26"/><path d="M148 256 L150 330" stroke="#36545c" stroke-width="24" opacity=".6" filter="url(#wash)"/></g>
<path d="M88 330 h26 a10 10 0 0 1 0 20 h-26 a10 10 0 0 1 0 -20 Z" fill="#FCF9F3"/><path d="M88 330 h26 a10 10 0 0 1 0 20 h-26 a10 10 0 0 1 0 -20 Z" fill="#2a2724" opacity=".88" transform="translate(2 2)" filter="url(#wash)"/><path d="M88 330 h26 a10 10 0 0 1 0 20 h-26 a10 10 0 0 1 0 -20 Z" fill="none" stroke="#2a2724" stroke-width="5" stroke-linejoin="round" filter="url(#wob-bubble)"/>
<path d="M146 330 h26 a10 10 0 0 1 0 20 h-26 a10 10 0 0 1 0 -20 Z" fill="#FCF9F3"/><path d="M146 330 h26 a10 10 0 0 1 0 20 h-26 a10 10 0 0 1 0 -20 Z" fill="#2a2724" opacity=".88" transform="translate(2 2)" filter="url(#wash)"/><path d="M146 330 h26 a10 10 0 0 1 0 20 h-26 a10 10 0 0 1 0 -20 Z" fill="none" stroke="#2a2724" stroke-width="5" stroke-linejoin="round" filter="url(#wob-bubble)"/>
<g fill="none" stroke-linecap="round"><path d="M98 152 C 84 178, 80 204, 82 228" stroke="#2a2724" stroke-width="32" filter="url(#wob-bubble)"/><path d="M98 152 C 84 178, 80 204, 82 228" stroke="#FCF9F3" stroke-width="22"/><path d="M98 152 C 84 178, 80 204, 82 228" stroke="#1f78a8" stroke-width="20" opacity=".6" filter="url(#wash)"/></g>
<path d="M71 236 a11 11 0 1 0 22 0 a11 11 0 1 0 -22 0 Z" fill="#FCF9F3"/><path d="M71 236 a11 11 0 1 0 22 0 a11 11 0 1 0 -22 0 Z" fill="#7a4b30" opacity=".6" transform="translate(2 2)" filter="url(#wash)"/><path d="M71 236 a11 11 0 1 0 22 0 a11 11 0 1 0 -22 0 Z" fill="none" stroke="#2a2724" stroke-width="5" stroke-linejoin="round" filter="url(#wob-bubble)"/>
<path d="M96 140 C 104 132, 156 132, 164 140 L 176 246 C 177 256, 172 262, 162 262 L 98 262 C 88 262, 83 256, 84 246 Z" fill="#FCF9F3"/><path d="M96 140 C 104 132, 156 132, 164 140 L 176 246 C 177 256, 172 262, 162 262 L 98 262 C 88 262, 83 256, 84 246 Z" fill="#1f78a8" opacity=".6" transform="translate(2 2)" filter="url(#wash)"/><path d="M96 140 C 104 132, 156 132, 164 140 L 176 246 C 177 256, 172 262, 162 262 L 98 262 C 88 262, 83 256, 84 246 Z" fill="none" stroke="#2a2724" stroke-width="5" stroke-linejoin="round" filter="url(#wob-bubble)"/>
<path d="M114 140 Q130 152 146 140" fill="none" stroke="#2a2724" stroke-width="4.5" stroke-linecap="round" stroke-linejoin="round"/>
<g fill="none" stroke-linecap="round"><path d="M162 152 C 184 172, 184 196, 168 206" stroke="#2a2724" stroke-width="32" filter="url(#wob-bubble)"/><path d="M162 152 C 184 172, 184 196, 168 206" stroke="#FCF9F3" stroke-width="22"/><path d="M162 152 C 184 172, 184 196, 168 206" stroke="#1f78a8" stroke-width="20" opacity=".6" filter="url(#wash)"/></g>
<path d="M142 186 L174 186 L172 224 L144 224 Z" fill="#FCF9F3"/><path d="M142 186 L174 186 L172 224 L144 224 Z" fill="#F76C37" opacity=".6" transform="translate(2 2)" filter="url(#wash)"/><path d="M142 186 L174 186 L172 224 L144 224 Z" fill="none" stroke="#2a2724" stroke-width="5" stroke-linejoin="round" filter="url(#wob-bubble)"/>
<path d="M174 194 C 186 194, 186 214, 173 214" fill="none" stroke="#2a2724" stroke-width="4.5" stroke-linecap="round" stroke-linejoin="round"/>
<path d="M150 212 a10 10 0 1 0 20 0 a10 10 0 1 0 -20 0 Z" fill="#FCF9F3"/><path d="M150 212 a10 10 0 1 0 20 0 a10 10 0 1 0 -20 0 Z" fill="#7a4b30" opacity=".6" transform="translate(2 2)" filter="url(#wash)"/><path d="M150 212 a10 10 0 1 0 20 0 a10 10 0 1 0 -20 0 Z" fill="none" stroke="#2a2724" stroke-width="5" stroke-linejoin="round" filter="url(#wob-bubble)"/>
<path d="M152 176 C 148 168, 156 164, 152 156 M164 176 C 160 168, 168 164, 164 156" fill="none" stroke="#2a2724" stroke-width="4" stroke-linecap="round" stroke-linejoin="round"/>
<g transform="rotate(0 130 134)">
<path d="M88 92 a42 42 0 1 0 84 0 a42 42 0 1 0 -84 0 Z" fill="#FCF9F3"/><path d="M88 92 a42 42 0 1 0 84 0 a42 42 0 1 0 -84 0 Z" fill="#7a4b30" opacity=".6" transform="translate(2 2)" filter="url(#wash)"/><path d="M88 92 a42 42 0 1 0 84 0 a42 42 0 1 0 -84 0 Z" fill="none" stroke="#2a2724" stroke-width="5" stroke-linejoin="round" filter="url(#wob-bubble)"/>
<path d="M100 62 C 110 56, 122 54, 132 54" fill="none" stroke="#2a2724" stroke-width="3.5" stroke-linecap="round" stroke-linejoin="round"/>
<circle cx="119" cy="98" r="4.5" fill="#2a2724"/>
<circle cx="147" cy="98" r="4.5" fill="#2a2724"/>
<path d="M122 113 Q133 122 144 113" fill="none" stroke="#2a2724" stroke-width="4.5" stroke-linecap="round" stroke-linejoin="round"/>
<ellipse cx="109" cy="110" rx="8" ry="5" fill="#f28c7a" opacity=".45"/>
<ellipse cx="157" cy="110" rx="8" ry="5" fill="#f28c7a" opacity=".45"/>
<path d="M109 98 a10 10 0 1 0 20 0 a10 10 0 1 0 -20 0 M137 98 a10 10 0 1 0 20 0 a10 10 0 1 0 -20 0 M129 97 L137 97" fill="none" stroke="#2a2724" stroke-width="4" stroke-linecap="round" stroke-linejoin="round"/>
</g></g><g transform="translate(375 0)"><g fill="none" stroke-linecap="round"><path d="M112 256 L110 330" stroke="#2a2724" stroke-width="36" filter="url(#wob-bubble)"/><path d="M112 256 L110 330" stroke="#FCF9F3" stroke-width="26"/><path d="M112 256 L110 330" stroke="#4a7d4b" stroke-width="24" opacity=".6" filter="url(#wash)"/></g>
<g fill="none" stroke-linecap="round"><path d="M148 256 L150 330" stroke="#2a2724" stroke-width="36" filter="url(#wob-bubble)"/><path d="M148 256 L150 330" stroke="#FCF9F3" stroke-width="26"/><path d="M148 256 L150 330" stroke="#4a7d4b" stroke-width="24" opacity=".6" filter="url(#wash)"/></g>
<path d="M88 330 h26 a10 10 0 0 1 0 20 h-26 a10 10 0 0 1 0 -20 Z" fill="#FCF9F3"/><path d="M88 330 h26 a10 10 0 0 1 0 20 h-26 a10 10 0 0 1 0 -20 Z" fill="#2a2724" opacity=".88" transform="translate(2 2)" filter="url(#wash)"/><path d="M88 330 h26 a10 10 0 0 1 0 20 h-26 a10 10 0 0 1 0 -20 Z" fill="none" stroke="#2a2724" stroke-width="5" stroke-linejoin="round" filter="url(#wob-bubble)"/>
<path d="M146 330 h26 a10 10 0 0 1 0 20 h-26 a10 10 0 0 1 0 -20 Z" fill="#FCF9F3"/><path d="M146 330 h26 a10 10 0 0 1 0 20 h-26 a10 10 0 0 1 0 -20 Z" fill="#2a2724" opacity=".88" transform="translate(2 2)" filter="url(#wash)"/><path d="M146 330 h26 a10 10 0 0 1 0 20 h-26 a10 10 0 0 1 0 -20 Z" fill="none" stroke="#2a2724" stroke-width="5" stroke-linejoin="round" filter="url(#wob-bubble)"/>
<g fill="none" stroke-linecap="round"><path d="M98 152 C 84 178, 80 204, 82 228" stroke="#2a2724" stroke-width="32" filter="url(#wob-bubble)"/><path d="M98 152 C 84 178, 80 204, 82 228" stroke="#FCF9F3" stroke-width="22"/><path d="M98 152 C 84 178, 80 204, 82 228" stroke="#f76c37" stroke-width="20" opacity=".6" filter="url(#wash)"/></g>
<path d="M71 236 a11 11 0 1 0 22 0 a11 11 0 1 0 -22 0 Z" fill="#FCF9F3"/><path d="M71 236 a11 11 0 1 0 22 0 a11 11 0 1 0 -22 0 Z" fill="#f0c2a0" opacity=".6" transform="translate(2 2)" filter="url(#wash)"/><path d="M71 236 a11 11 0 1 0 22 0 a11 11 0 1 0 -22 0 Z" fill="none" stroke="#2a2724" stroke-width="5" stroke-linejoin="round" filter="url(#wob-bubble)"/>
<path d="M96 140 C 104 132, 156 132, 164 140 L 176 246 C 177 256, 172 262, 162 262 L 98 262 C 88 262, 83 256, 84 246 Z" fill="#FCF9F3"/><path d="M96 140 C 104 132, 156 132, 164 140 L 176 246 C 177 256, 172 262, 162 262 L 98 262 C 88 262, 83 256, 84 246 Z" fill="#f76c37" opacity=".6" transform="translate(2 2)" filter="url(#wash)"/><path d="M96 140 C 104 132, 156 132, 164 140 L 176 246 C 177 256, 172 262, 162 262 L 98 262 C 88 262, 83 256, 84 246 Z" fill="none" stroke="#2a2724" stroke-width="5" stroke-linejoin="round" filter="url(#wob-bubble)"/>
<path d="M114 140 Q130 152 146 140" fill="none" stroke="#2a2724" stroke-width="4.5" stroke-linecap="round" stroke-linejoin="round"/>
<g fill="none" stroke-linecap="round"><path d="M162 150 C 186 134, 196 108, 198 82" stroke="#2a2724" stroke-width="32" filter="url(#wob-bubble)"/><path d="M162 150 C 186 134, 196 108, 198 82" stroke="#FCF9F3" stroke-width="22"/><path d="M162 150 C 186 134, 196 108, 198 82" stroke="#f76c37" stroke-width="20" opacity=".6" filter="url(#wash)"/></g>
<g fill="none" stroke-linecap="round"><path d="M199 70 L203 48" stroke="#2a2724" stroke-width="18" filter="url(#wob-bubble)"/><path d="M199 70 L203 48" stroke="#FCF9F3" stroke-width="8"/><path d="M199 70 L203 48" stroke="#f0c2a0" stroke-width="6" opacity=".6" filter="url(#wash)"/></g>
<path d="M188 72 a11 11 0 1 0 22 0 a11 11 0 1 0 -22 0 Z" fill="#FCF9F3"/><path d="M188 72 a11 11 0 1 0 22 0 a11 11 0 1 0 -22 0 Z" fill="#f0c2a0" opacity=".6" transform="translate(2 2)" filter="url(#wash)"/><path d="M188 72 a11 11 0 1 0 22 0 a11 11 0 1 0 -22 0 Z" fill="none" stroke="#2a2724" stroke-width="5" stroke-linejoin="round" filter="url(#wob-bubble)"/>
<path d="M186 40 L180 32 M212 36 L218 28 M200 26 L200 16" fill="none" stroke="#2a2724" stroke-width="4.5" stroke-linecap="round" stroke-linejoin="round"/>
<g transform="rotate(-6 130 134)">
<path d="M113 44 a17 17 0 1 0 34 0 a17 17 0 1 0 -34 0 Z" fill="#FCF9F3"/><path d="M113 44 a17 17 0 1 0 34 0 a17 17 0 1 0 -34 0 Z" fill="#c0612b" opacity=".6" transform="translate(2 2)" filter="url(#wash)"/><path d="M113 44 a17 17 0 1 0 34 0 a17 17 0 1 0 -34 0 Z" fill="none" stroke="#2a2724" stroke-width="5" stroke-linejoin="round" filter="url(#wob-bubble)"/>
<path d="M88 92 a42 42 0 1 0 84 0 a42 42 0 1 0 -84 0 Z" fill="#FCF9F3"/><path d="M88 92 a42 42 0 1 0 84 0 a42 42 0 1 0 -84 0 Z" fill="#f0c2a0" opacity=".6" transform="translate(2 2)" filter="url(#wash)"/><path d="M88 92 a42 42 0 1 0 84 0 a42 42 0 1 0 -84 0 Z" fill="none" stroke="#2a2724" stroke-width="5" stroke-linejoin="round" filter="url(#wob-bubble)"/>
<path d="M88 94 C 84 60, 108 48, 132 50 C 158 50, 176 66, 172 94 C 162 76, 144 70, 128 72 C 110 74, 96 82, 88 94 Z" fill="#FCF9F3"/><path d="M88 94 C 84 60, 108 48, 132 50 C 158 50, 176 66, 172 94 C 162 76, 144 70, 128 72 C 110 74, 96 82, 88 94 Z" fill="#c0612b" opacity=".6" transform="translate(2 2)" filter="url(#wash)"/><path d="M88 94 C 84 60, 108 48, 132 50 C 158 50, 176 66, 172 94 C 162 76, 144 70, 128 72 C 110 74, 96 82, 88 94 Z" fill="none" stroke="#2a2724" stroke-width="5" stroke-linejoin="round" filter="url(#wob-bubble)"/>
<circle cx="116" cy="98" r="4.5" fill="#2a2724"/>
<circle cx="144" cy="98" r="4.5" fill="#2a2724"/>
<path d="M119 113 Q130 122 141 113" fill="none" stroke="#2a2724" stroke-width="4.5" stroke-linecap="round" stroke-linejoin="round"/>
<ellipse cx="106" cy="110" rx="8" ry="5" fill="#f28c7a" opacity=".45"/>
<ellipse cx="154" cy="110" rx="8" ry="5" fill="#f28c7a" opacity=".45"/>
</g></g><g transform="translate(-30 212) scale(.78)"><g fill="none" stroke-linecap="round"><path d="M138 170 C 166 162, 176 142, 170 118" stroke="#2a2724" stroke-width="22" filter="url(#wob-bubble)"/><path d="M138 170 C 166 162, 176 142, 170 118" stroke="#FCF9F3" stroke-width="12"/><path d="M138 170 C 166 162, 176 142, 170 118" stroke="#D6631C" stroke-width="10" opacity=".6" filter="url(#wash)"/></g>
<path d="M176 104 L184 96 M182 116 L192 112" fill="none" stroke="#2a2724" stroke-width="4" stroke-linecap="round" stroke-linejoin="round"/>
<path d="M58 186 C 50 146, 64 112, 100 110 C 136 112, 150 146, 142 186 Z" fill="#FCF9F3"/><path d="M58 186 C 50 146, 64 112, 100 110 C 136 112, 150 146, 142 186 Z" fill="#D6631C" opacity=".6" transform="translate(2 2)" filter="url(#wash)"/><path d="M58 186 C 50 146, 64 112, 100 110 C 136 112, 150 146, 142 186 Z" fill="none" stroke="#2a2724" stroke-width="5" stroke-linejoin="round" filter="url(#wob-bubble)"/>
<path d="M86 184 C 82 158, 90 138, 100 136 C 110 138, 118 158, 114 184 Z" fill="#FCF9F3"/><path d="M86 184 C 82 158, 90 138, 100 136 C 110 138, 118 158, 114 184 Z" fill="#FAEED3" opacity=".6" transform="translate(2 2)" filter="url(#wash)"/><path d="M86 184 C 82 158, 90 138, 100 136 C 110 138, 118 158, 114 184 Z" fill="none" stroke="#2a2724" stroke-width="5" stroke-linejoin="round" filter="url(#wob-bubble)"/>
<g fill="none" stroke-linecap="round"><path d="M84 152 L82 182" stroke="#2a2724" stroke-width="26" filter="url(#wob-bubble)"/><path d="M84 152 L82 182" stroke="#FCF9F3" stroke-width="16"/><path d="M84 152 L82 182" stroke="#D6631C" stroke-width="14" opacity=".6" filter="url(#wash)"/></g>
<g fill="none" stroke-linecap="round"><path d="M116 152 L118 182" stroke="#2a2724" stroke-width="26" filter="url(#wob-bubble)"/><path d="M116 152 L118 182" stroke="#FCF9F3" stroke-width="16"/><path d="M116 152 L118 182" stroke="#D6631C" stroke-width="14" opacity=".6" filter="url(#wash)"/></g>
<path d="M67 186 a13 7 0 1 0 26 0 a13 7 0 1 0 -26 0 Z" fill="#FCF9F3"/><path d="M67 186 a13 7 0 1 0 26 0 a13 7 0 1 0 -26 0 Z" fill="#D6631C" opacity=".6" transform="translate(2 2)" filter="url(#wash)"/><path d="M67 186 a13 7 0 1 0 26 0 a13 7 0 1 0 -26 0 Z" fill="none" stroke="#2a2724" stroke-width="5" stroke-linejoin="round" filter="url(#wob-bubble)"/>
<path d="M107 186 a13 7 0 1 0 26 0 a13 7 0 1 0 -26 0 Z" fill="#FCF9F3"/><path d="M107 186 a13 7 0 1 0 26 0 a13 7 0 1 0 -26 0 Z" fill="#D6631C" opacity=".6" transform="translate(2 2)" filter="url(#wash)"/><path d="M107 186 a13 7 0 1 0 26 0 a13 7 0 1 0 -26 0 Z" fill="none" stroke="#2a2724" stroke-width="5" stroke-linejoin="round" filter="url(#wob-bubble)"/>
<g transform="rotate(10 100 110)">
<path d="M66 84 a34 34 0 1 0 68 0 a34 34 0 1 0 -68 0 Z" fill="#FCF9F3"/><path d="M66 84 a34 34 0 1 0 68 0 a34 34 0 1 0 -68 0 Z" fill="#D6631C" opacity=".6" transform="translate(2 2)" filter="url(#wash)"/><path d="M66 84 a34 34 0 1 0 68 0 a34 34 0 1 0 -68 0 Z" fill="none" stroke="#2a2724" stroke-width="5" stroke-linejoin="round" filter="url(#wob-bubble)"/>
<path d="M81 102 a19 14 0 1 0 38 0 a19 14 0 1 0 -38 0 Z" fill="#FCF9F3"/><path d="M81 102 a19 14 0 1 0 38 0 a19 14 0 1 0 -38 0 Z" fill="#FAEED3" opacity=".6" transform="translate(2 2)" filter="url(#wash)"/><path d="M81 102 a19 14 0 1 0 38 0 a19 14 0 1 0 -38 0 Z" fill="none" stroke="#2a2724" stroke-width="5" stroke-linejoin="round" filter="url(#wob-bubble)"/>
<path d="M70 64 C 54 66, 50 98, 62 112 C 74 110, 78 88, 78 72 Z" fill="#FCF9F3"/><path d="M70 64 C 54 66, 50 98, 62 112 C 74 110, 78 88, 78 72 Z" fill="#6b4a2e" opacity=".6" transform="translate(2 2)" filter="url(#wash)"/><path d="M70 64 C 54 66, 50 98, 62 112 C 74 110, 78 88, 78 72 Z" fill="none" stroke="#2a2724" stroke-width="5" stroke-linejoin="round" filter="url(#wob-bubble)"/>
<path d="M130 64 C 146 66, 150 98, 138 112 C 126 110, 122 88, 122 72 Z" fill="#FCF9F3"/><path d="M130 64 C 146 66, 150 98, 138 112 C 126 110, 122 88, 122 72 Z" fill="#6b4a2e" opacity=".6" transform="translate(2 2)" filter="url(#wash)"/><path d="M130 64 C 146 66, 150 98, 138 112 C 126 110, 122 88, 122 72 Z" fill="none" stroke="#2a2724" stroke-width="5" stroke-linejoin="round" filter="url(#wob-bubble)"/>
<circle cx="88" cy="80" r="4.5" fill="#2a2724"/>
<circle cx="112" cy="80" r="4.5" fill="#2a2724"/>
<path d="M93 95 a7 5 0 1 0 14 0 a7 5 0 1 0 -14 0 Z" fill="#FCF9F3"/><path d="M93 95 a7 5 0 1 0 14 0 a7 5 0 1 0 -14 0 Z" fill="#2a2724" opacity=".88" transform="translate(2 2)" filter="url(#wash)"/><path d="M93 95 a7 5 0 1 0 14 0 a7 5 0 1 0 -14 0 Z" fill="none" stroke="#2a2724" stroke-width="5" stroke-linejoin="round" filter="url(#wob-bubble)"/>
<path d="M100 100 L100 105 M92 106 Q100 112 108 106" fill="none" stroke="#2a2724" stroke-width="3.8" stroke-linecap="round" stroke-linejoin="round"/>
<path d="M96 109 C 96 118, 104 118, 104 109 Z" fill="#FCF9F3"/><path d="M96 109 C 96 118, 104 118, 104 109 Z" fill="#F76C37" opacity=".6" transform="translate(2 2)" filter="url(#wash)"/><path d="M96 109 C 96 118, 104 118, 104 109 Z" fill="none" stroke="#2a2724" stroke-width="5" stroke-linejoin="round" filter="url(#wob-bubble)"/>
</g>
<g fill="none" stroke-linecap="round"><path d="M72 118 C 88 128, 112 128, 128 118" stroke="#2a2724" stroke-width="18" filter="url(#wob-bubble)"/><path d="M72 118 C 88 128, 112 128, 128 118" stroke="#FCF9F3" stroke-width="8"/><path d="M72 118 C 88 128, 112 128, 128 118" stroke="#1F78A8" stroke-width="6" opacity=".6" filter="url(#wash)"/></g>
<path d="M95 128 a5 5 0 1 0 10 0 a5 5 0 1 0 -10 0 Z" fill="#FCF9F3"/><path d="M95 128 a5 5 0 1 0 10 0 a5 5 0 1 0 -10 0 Z" fill="#EEA306" opacity=".6" transform="translate(2 2)" filter="url(#wash)"/><path d="M95 128 a5 5 0 1 0 10 0 a5 5 0 1 0 -10 0 Z" fill="none" stroke="#2a2724" stroke-width="5" stroke-linejoin="round" filter="url(#wob-bubble)"/></g></svg>