<svg xmlns="http://www.w3.org/2000/svg" viewBox="-6 10 156 130" role="img" aria-label="bicycle doodle"><defs><filter id="w" filterUnits="userSpaceOnUse" x="-40" y="-40" width="240" height="240"><feTurbulence type="fractalNoise" baseFrequency="0.035" numOctaves="2" seed="3"/><feDisplacementMap in="SourceGraphic" scale="3.5"/></filter><filter id="sk-wash" filterUnits="userSpaceOnUse" x="-50" y="-50" width="2000" height="2000"><feTurbulence type="fractalNoise" baseFrequency="0.06" numOctaves="3" seed="11" result="n"/><feDisplacementMap in="SourceGraphic" in2="n" scale="8" result="d"/><feGaussianBlur in="d" stdDeviation="1.2"/></filter></defs><g stroke="none" opacity=".6" filter="url(#sk-wash)" transform="translate(4 4)"><path d="M6 98 a26 26 0 1 0 52 0 a26 26 0 1 0 -52 0 Z" fill="#EEF4F5"/><path d="M83 98 a27 27 0 1 0 54 0 a27 27 0 1 0 -54 0 Z" fill="#EEF4F5"/><path d="M32 98 L58 56 L68 98 Z" fill="#F76C37"/><path d="M58 56 L98 58 L68 98 Z" fill="#F76C37"/><path d="M46 50 C 50 44, 66 44, 70 50 Z" fill="#EEA306"/></g><g fill="none" stroke="#2A2724" stroke-width="2.6" stroke-linecap="round" stroke-linejoin="round" filter="url(#w)"><path d="M6 98 a26 26 0 1 0 52 0 a26 26 0 1 0 -52 0 Z"/><path d="M83 98 a27 27 0 1 0 54 0 a27 27 0 1 0 -54 0 Z"/><path d="M6 98 a26 26 0 1 0 52 0 a26 26 0 1 0 -52 0 Z"/><path d="M83 98 a27 27 0 1 0 54 0 a27 27 0 1 0 -54 0 Z"/><path d="M32 98 L32 74 M32 98 L52 108 M32 98 L14 110 M110 98 L110 72 M110 98 L88 108 M110 98 L128 112"/><path d="M32 98 L58 56 L68 98 Z"/><path d="M58 56 L98 58 L68 98 Z"/><path d="M98 58 L110 98"/><path d="M46 50 C 50 44, 66 44, 70 50 Z"/><path d="M58 50 L58 56"/><path d="M98 58 L94 40 C 100 36, 108 36, 112 40"/></g><g filter="url(#w)"><path d="M28.5 98 a3.5 3.5 0 1 0 7.0 0 a3.5 3.5 0 1 0 -7.0 0 Z" fill="#2A2724" stroke="none"/><path d="M106.5 98 a3.5 3.5 0 1 0 7.0 0 a3.5 3.5 0 1 0 -7.0 0 Z" fill="#2A2724" stroke="none"/><path d="M64 98 a4 4 0 1 0 8 0 a4 4 0 1 0 -8 0 Z" fill="#2A2724" stroke="none"/></g></svg>