<svg xmlns="http://www.w3.org/2000/svg" viewBox="-6 -10 156 156" role="img" aria-label="lightbulb doodle"><defs><filter id="w" filterUnits="userSpaceOnUse" x="-40" y="-40" width="240" height="240"><feTurbulence type="fractalNoise" baseFrequency="0.035" numOctaves="2" seed="3"/><feDisplacementMap in="SourceGraphic" scale="3.5"/></filter><filter id="sk-wash" filterUnits="userSpaceOnUse" x="-50" y="-50" width="2000" height="2000"><feTurbulence type="fractalNoise" baseFrequency="0.06" numOctaves="3" seed="11" result="n"/><feDisplacementMap in="SourceGraphic" in2="n" scale="8" result="d"/><feGaussianBlur in="d" stdDeviation="1.2"/></filter></defs><g stroke="none" opacity=".6" filter="url(#sk-wash)" transform="translate(4 4)"><path d="M70 30 C 40 30, 30 60, 48 80 C 56 90, 56 98, 56 106 L 84 106 C 84 98, 84 90, 92 80 C 110 60, 100 30, 70 30 Z" fill="#EEA306"/><path d="M56 108 L84 108 L82 124 L58 124 Z" fill="#36545C"/></g><g fill="none" stroke="#2A2724" stroke-width="2.6" stroke-linecap="round" stroke-linejoin="round" filter="url(#w)"><path d="M70 30 C 40 30, 30 60, 48 80 C 56 90, 56 98, 56 106 L 84 106 C 84 98, 84 90, 92 80 C 110 60, 100 30, 70 30 Z"/><path d="M56 108 L84 108 L82 124 L58 124 Z"/><path d="M58 116 L82 116 M22 56 L8 50 M70 14 L70 -2 M118 56 L132 50"/></g><g filter="url(#w)"></g></svg>